<?xml version="1.0"?>
<!--?xml version="1.0" encoding="utf-8"?-->
<!-- Generator: Adobe Illustrator 19.0.1, SVG Export Plug-In . SVG Version: 6.00 Build 0)  -->
<svg version="1.1" id="logo" xmlns="http://www.w3.org/2000/svg" xmlns:xlink="http://www.w3.org/1999/xlink" x="0px" y="0px" width="242px" height="77px" viewBox="-1429 1212.4 242 77" style="enable-background:new -1429 1212.4 242 77;" xml:space="preserve">
<g>
	<path d="M-1404.8,1245l-2.7-5.7h-1.9v5.7h-4.6v-16.8h7.5c1,0,1.9,0.1,2.7,0.3c0.8,0.2,1.5,0.5,2.1,0.9c0.6,0.4,1,1,1.3,1.7
		c0.3,0.7,0.5,1.5,0.5,2.5c0,1.3-0.3,2.3-0.8,3.1c-0.5,0.8-1.3,1.4-2.2,1.8l3.4,6.4H-1404.8z M-1405,1232.5
		c-0.3-0.3-0.8-0.5-1.6-0.5h-2.8v3.7h2.8c0.8,0,1.3-0.2,1.6-0.5c0.3-0.3,0.5-0.8,0.5-1.4C-1404.6,1233.2-1404.7,1232.8-1405,1232.5z
		"></path>
	<path d="M-1396.1,1245v-16.8h12.9v3.9h-8.3v2.3h5v3.8h-5v2.9h8.4v3.9H-1396.1z"></path>
	<path d="M-1365.4,1240.5c-0.4,1.1-1,2-1.7,2.6c-0.8,0.7-1.7,1.1-2.8,1.4c-1.1,0.3-2.4,0.4-3.9,0.4h-5.4v-16.8h5.9
		c1.3,0,2.5,0.1,3.6,0.4c1.1,0.3,2,0.7,2.7,1.4c0.7,0.6,1.3,1.5,1.7,2.6c0.4,1.1,0.6,2.4,0.6,4S-1365,1239.4-1365.4,1240.5z
		 M-1369.8,1234.6c-0.1-0.6-0.4-1-0.7-1.4s-0.7-0.6-1.2-0.8c-0.5-0.2-1.1-0.3-1.8-0.3h-1.2v8.8h1c0.7,0,1.3-0.1,1.8-0.2
		c0.5-0.2,0.9-0.4,1.3-0.7s0.6-0.8,0.7-1.4c0.1-0.6,0.2-1.3,0.2-2.1C-1369.6,1235.8-1369.7,1235.1-1369.8,1234.6z"></path>
	<path d="M-1342.7,1245v-6.6h-5.2v6.6h-4.8v-16.8h4.8v6.1h5.2v-6.1h4.8v16.8H-1342.7z"></path>
	<path d="M-1323,1245l-0.9-3h-5l-0.9,3h-5l6.1-16.8h4.7l6.1,16.8H-1323z M-1325.3,1237.2c-0.1-0.5-0.3-1-0.4-1.4
		c-0.1-0.4-0.2-0.8-0.3-1.1s-0.2-0.6-0.2-0.9c-0.1-0.3-0.1-0.5-0.2-0.8c0,0.3-0.1,0.6-0.2,0.8c-0.1,0.3-0.1,0.6-0.2,0.9
		c-0.1,0.3-0.2,0.7-0.3,1.1s-0.2,0.9-0.4,1.4l-0.3,1.1h2.8L-1325.3,1237.2z"></path>
	<path d="M-1308.4,1232.2v12.7h-4.7v-12.7h-4.7v-4.1h14.1v4.1H-1308.4z"></path>
	<path d="M-1297.5,1231.1c-0.1,0.3-0.3,0.5-0.5,0.7c-0.2,0.2-0.4,0.3-0.7,0.5c-0.3,0.1-0.6,0.2-0.9,0.2s-0.6-0.1-0.9-0.2
		c-0.3-0.1-0.5-0.3-0.7-0.5c-0.2-0.2-0.3-0.4-0.5-0.7c-0.1-0.3-0.2-0.5-0.2-0.9c0-0.3,0.1-0.6,0.2-0.9s0.3-0.5,0.5-0.7
		c0.2-0.2,0.4-0.3,0.7-0.5c0.3-0.1,0.6-0.2,0.9-0.2c0.3,0,0.6,0.1,0.9,0.2c0.3,0.1,0.5,0.3,0.7,0.5c0.2,0.2,0.3,0.4,0.5,0.7
		c0.1,0.3,0.2,0.5,0.2,0.9C-1297.3,1230.5-1297.4,1230.8-1297.5,1231.1z M-1297.8,1229.5c-0.1-0.2-0.2-0.4-0.4-0.6
		c-0.2-0.2-0.4-0.3-0.6-0.4c-0.2-0.1-0.5-0.1-0.7-0.1c-0.3,0-0.5,0-0.7,0.1c-0.2,0.1-0.4,0.2-0.6,0.4c-0.2,0.2-0.3,0.4-0.4,0.6
		c-0.1,0.2-0.1,0.5-0.1,0.7c0,0.3,0,0.5,0.1,0.7c0.1,0.2,0.2,0.4,0.4,0.6c0.2,0.2,0.4,0.3,0.6,0.4c0.2,0.1,0.5,0.1,0.7,0.1
		c0.3,0,0.5,0,0.7-0.1c0.2-0.1,0.4-0.2,0.6-0.4c0.2-0.2,0.3-0.4,0.4-0.6c0.1-0.2,0.1-0.5,0.1-0.7
		C-1297.7,1230-1297.7,1229.7-1297.8,1229.5z M-1298.6,1230.2c-0.1,0.1-0.2,0.2-0.4,0.2l0.5,1h-0.5l-0.5-0.9h-0.5v0.9h-0.4v-2.4h1
		c0.1,0,0.2,0,0.3,0s0.2,0.1,0.2,0.1c0.1,0.1,0.1,0.1,0.2,0.2c0,0.1,0.1,0.2,0.1,0.3C-1298.5,1229.9-1298.5,1230.1-1298.6,1230.2z
		 M-1299,1229.5c-0.1-0.1-0.2-0.1-0.3-0.1h-0.6v0.7h0.6c0.1,0,0.2,0,0.3-0.1c0.1-0.1,0.1-0.1,0.1-0.3
		C-1298.9,1229.6-1298.9,1229.5-1299,1229.5z"></path>
	<path d="M-1400.1,1274.2c-1.4,0.8-3,1.2-4.8,1.2c-1.5,0-2.9-0.3-4.2-1c-1.3-0.7-2.3-1.6-3.2-2.7c-0.9-1.2-1.6-2.5-2.1-4.1
		s-0.7-3.3-0.7-5.1c0-1.9,0.3-3.6,0.8-5.2c0.5-1.6,1.2-3,2.1-4.1s2-2.1,3.3-2.7c1.3-0.7,2.7-1,4.2-1c3.4,0,6.1,1.3,8,4l-2.2,1.7
		c-0.8-1.1-1.7-1.9-2.5-2.4c-0.9-0.5-2-0.8-3.3-0.8c-1.1,0-2.1,0.3-3,0.8c-0.9,0.5-1.7,1.2-2.3,2.1c-0.6,0.9-1.2,2-1.5,3.3
		c-0.4,1.3-0.6,2.7-0.6,4.2c0,1.5,0.2,2.9,0.6,4.2c0.4,1.3,0.9,2.4,1.6,3.3c0.7,0.9,1.5,1.6,2.4,2.2c0.9,0.5,1.9,0.8,3,0.8
		c1.4,0,2.5-0.3,3.5-0.9c1-0.6,1.9-1.4,2.7-2.4l1.9,1.7C-1397.6,1272.4-1398.7,1273.5-1400.1,1274.2z"></path>
	<path d="M-1373,1267.6c-0.5,1.6-1.2,3-2.1,4.1c-0.9,1.2-2,2.1-3.3,2.7s-2.7,1-4.3,1c-1.6,0-3-0.3-4.3-1c-1.3-0.6-2.4-1.5-3.3-2.7
		c-0.9-1.2-1.6-2.5-2.1-4.1c-0.5-1.6-0.7-3.3-0.7-5.2s0.3-3.6,0.8-5.2c0.5-1.6,1.2-3,2.1-4.1s2-2.1,3.3-2.7c1.3-0.6,2.7-1,4.3-1
		c1.6,0,3,0.3,4.3,1c1.3,0.6,2.4,1.5,3.3,2.7c0.9,1.2,1.6,2.5,2.1,4.1s0.8,3.3,0.8,5.2C-1372.2,1264.2-1372.5,1266-1373,1267.6z
		 M-1375.6,1258.1c-0.4-1.3-0.9-2.4-1.6-3.3c-0.7-0.9-1.5-1.6-2.4-2.1c-0.9-0.5-2-0.7-3.1-0.7c-1.1,0-2.1,0.2-3,0.7
		c-0.9,0.5-1.7,1.2-2.4,2.1c-0.7,0.9-1.2,2-1.6,3.3c-0.4,1.3-0.6,2.7-0.6,4.3c0,1.6,0.2,3,0.6,4.3c0.4,1.3,0.9,2.4,1.6,3.3
		c0.7,0.9,1.5,1.6,2.4,2.1c0.9,0.5,2,0.7,3.1,0.7c1.1,0,2.1-0.2,3-0.7c0.9-0.5,1.7-1.2,2.4-2.1c0.7-0.9,1.2-2,1.6-3.3
		c0.4-1.3,0.6-2.7,0.6-4.3S-1375.2,1259.4-1375.6,1258.1z"></path>
	<path d="M-1351.2,1275l-11-17.2c-0.1-0.2-0.3-0.5-0.5-0.8c-0.2-0.3-0.3-0.6-0.5-0.9c-0.2-0.3-0.3-0.6-0.5-0.8
		c-0.2-0.3-0.3-0.5-0.3-0.6v1.7v18.7h-2.7v-25.2h2.7l10.9,17.6c0.1,0.2,0.3,0.5,0.5,0.8c0.2,0.3,0.3,0.6,0.5,0.9
		c0.2,0.3,0.3,0.6,0.5,0.8s0.3,0.5,0.3,0.6v-1.7v-19h2.7v25.2H-1351.2z"></path>
	<path d="M-1327,1271.1c-0.4,0.9-0.9,1.6-1.6,2.2c-0.7,0.6-1.6,1.1-2.6,1.5c-1,0.4-2.2,0.5-3.5,0.5c-1.7,0-3.3-0.3-4.8-1
		c-1.5-0.7-2.7-1.5-3.7-2.5l1.9-2.1c1,0.9,2,1.6,3.1,2.2c1.1,0.6,2.3,0.8,3.6,0.8c1.7,0,3-0.4,4-1.2c1-0.8,1.5-1.8,1.5-3.2
		c0-0.6-0.1-1.1-0.3-1.6c-0.2-0.5-0.5-0.9-1-1.3c-0.5-0.4-1.1-0.8-1.9-1.2c-0.8-0.4-1.7-0.8-2.9-1.2c-1.4-0.5-2.5-1-3.4-1.5
		c-0.9-0.5-1.7-1-2.2-1.6c-0.6-0.6-1-1.2-1.2-1.9c-0.3-0.7-0.4-1.5-0.4-2.4c0-1,0.2-1.9,0.6-2.7c0.4-0.8,0.9-1.5,1.6-2
		c0.7-0.6,1.5-1,2.5-1.3c1-0.3,2-0.4,3.2-0.4c1.7,0,3.1,0.2,4.3,0.7c1.2,0.5,2.3,1.1,3.4,2l-1.8,2.2c-0.9-0.8-1.8-1.3-2.8-1.7
		c-0.9-0.4-2-0.6-3.3-0.6c-0.9,0-1.6,0.1-2.2,0.3c-0.6,0.2-1.1,0.5-1.5,0.8c-0.4,0.3-0.7,0.7-0.9,1.2c-0.2,0.4-0.3,0.9-0.3,1.4
		c0,0.5,0.1,1,0.2,1.4c0.1,0.4,0.4,0.8,0.9,1.2s1,0.8,1.8,1.2c0.8,0.4,1.8,0.8,3.1,1.3c1.4,0.5,2.6,1,3.5,1.5
		c0.9,0.5,1.7,1.1,2.2,1.7c0.6,0.6,1,1.3,1.2,2s0.4,1.5,0.4,2.5C-1326.4,1269.3-1326.6,1270.3-1327,1271.1z"></path>
	<path d="M-1304.9,1272.7c-1.5,1.8-3.8,2.7-6.8,2.7c-3,0-5.3-0.9-6.8-2.7c-1.5-1.8-2.3-4.4-2.3-7.9v-15h2.8v14.9
		c0,5.4,2.1,8.1,6.4,8.1c2.2,0,3.7-0.7,4.7-2c0.9-1.3,1.4-3.3,1.4-6.1v-15h2.8v14.9C-1302.7,1268.2-1303.4,1270.8-1304.9,1272.7z"></path>
	<path d="M-1296.2,1275v-25.2h2.8v22.6h12.5v2.6H-1296.2z"></path>
	<path d="M-1270.6,1252.3v22.6h-2.8v-22.6h-7.4v-2.6h17.6v2.6H-1270.6z"></path>
	<path d="M-1258,1275v-25.2h2.8v25.2H-1258z"></path>
	<path d="M-1232.8,1275l-11-17.2c-0.1-0.2-0.3-0.5-0.5-0.8s-0.3-0.6-0.5-0.9c-0.2-0.3-0.3-0.6-0.5-0.8c-0.2-0.3-0.3-0.5-0.3-0.6v1.7
		v18.7h-2.7v-25.2h2.7l10.9,17.6c0.1,0.2,0.3,0.5,0.5,0.8c0.2,0.3,0.3,0.6,0.5,0.9c0.2,0.3,0.3,0.6,0.5,0.8c0.2,0.3,0.3,0.5,0.3,0.6
		v-1.7v-19h2.7v25.2H-1232.8z"></path>
	<path d="M-1205.9,1269.5c-0.5,1.3-1.1,2.4-2,3.3c-0.8,0.9-1.8,1.5-3,2c-1.1,0.4-2.4,0.6-3.7,0.6c-1.5,0-2.9-0.3-4.2-1
		c-1.3-0.7-2.3-1.6-3.2-2.7s-1.6-2.5-2.1-4.1s-0.7-3.3-0.7-5.1c0-1.9,0.3-3.6,0.8-5.2c0.5-1.6,1.2-3,2.1-4.1c0.9-1.2,2-2.1,3.3-2.7
		c1.3-0.7,2.7-1,4.2-1c3.4,0,6.1,1.3,8,4l-2.2,1.7c-0.8-1.1-1.7-1.9-2.5-2.4c-0.9-0.5-2-0.8-3.3-0.8c-1.1,0-2.1,0.3-3,0.8
		c-0.9,0.5-1.7,1.2-2.3,2.1c-0.6,0.9-1.2,2-1.5,3.3c-0.4,1.3-0.6,2.7-0.6,4.2c0,1.5,0.2,2.9,0.6,4.2c0.4,1.3,0.9,2.4,1.6,3.3
		c0.7,0.9,1.4,1.6,2.4,2.2c0.9,0.5,1.9,0.8,3,0.8c2.1,0,3.7-0.6,4.8-1.9c1.1-1.3,1.7-3.1,1.7-5.6v-0.2h-4.5v-2.6h7.3v2.4
		C-1205.2,1266.7-1205.4,1268.2-1205.9,1269.5z"></path>
</g>
</svg>
